<?xml version="1.0" standalone="no"?>
<!DOCTYPE svg PUBLIC "-//W3C//DTD SVG 20010904//EN"
 "http://www.w3.org/TR/2001/REC-SVG-20010904/DTD/svg10.dtd">
<svg version="1.0" xmlns="http://www.w3.org/2000/svg"
 width="500.000000pt" height="500.000000pt" viewBox="0 0 500.000000 500.000000"
 preserveAspectRatio="xMidYMid meet">
<metadata>
Created by potrace 1.14, written by Peter Selinger 2001-2017
</metadata>
<g transform="translate(0.000000,500.000000) scale(0.100000,-0.100000)"
fill="#000000" stroke="none">
<path d="M0 2500 l0 -2500 2500 0 2500 0 0 2500 0 2500 -2500 0 -2500 0 0
-2500z m3681 1016 c85 -19 188 -58 253 -96 55 -31 166 -126 166 -141 0 -11
-188 -270 -204 -281 -17 -12 -19 -11 -86 42 -124 100 -244 140 -419 140 -162
0 -269 -36 -319 -107 -66 -95 -45 -233 46 -297 61 -42 121 -61 355 -111 280
-59 365 -89 476 -164 159 -108 235 -268 235 -491 -1 -199 -53 -339 -169 -456
-138 -139 -327 -204 -594 -204 -289 0 -526 69 -698 204 -64 50 -163 164 -163
187 0 16 231 289 244 289 7 0 37 -28 65 -62 127 -151 268 -227 459 -249 203
-23 357 36 408 156 25 59 23 169 -4 221 -45 87 -119 126 -344 180 -294 69
-344 84 -433 128 -221 110 -319 256 -332 496 -17 340 195 572 582 633 64 11
411 -2 476 -17z m-1273 -178 l2 -178 -310 0 -310 0 0 -890 0 -890 -210 0 -210
0 0 890 0 890 -305 0 -305 0 0 180 0 180 823 -2 822 -3 3 -177z"/>
</g>
</svg>
