<?xml version="1.0" standalone="no"?>
<!DOCTYPE svg PUBLIC "-//W3C//DTD SVG 20010904//EN"
 "http://www.w3.org/TR/2001/REC-SVG-20010904/DTD/svg10.dtd">
<svg version="1.0" xmlns="http://www.w3.org/2000/svg"
 width="512.000000pt" height="512.000000pt" viewBox="0 0 512.000000 512.000000"
 preserveAspectRatio="xMidYMid meet">
<metadata>
Created by potrace 1.14, written by Peter Selinger 2001-2017
</metadata>
<g transform="translate(0.000000,512.000000) scale(0.100000,-0.100000)"
fill="#000000" stroke="none">
<path d="M1885 4369 c-60 -3 -111 -7 -112 -8 -19 -11 -53 -61 -53 -77 0 -20
-6 -21 -87 -23 -47 -1 -89 -2 -92 -3 -20 -2 -31 3 -26 12 11 17 -60 80 -90 80
-51 0 -105 -44 -105 -87 0 -18 -5 -23 -27 -23 -16 -1 -61 -3 -101 -7 l-72 -5
-11 30 c-13 37 -62 63 -109 57 -19 -2 -62 -7 -95 -10 -52 -5 -112 -14 -193
-29 -109 -22 -322 -106 -322 -128 0 -4 -5 -8 -10 -8 -6 0 -24 -12 -42 -27
-186 -163 -272 -371 -303 -728 -3 -38 -8 -83 -10 -100 -26 -197 -26 -1287 0
-1446 2 -13 6 -62 10 -109 38 -532 259 -817 690 -894 17 -3 39 -8 50 -10 25
-4 95 -14 160 -21 28 -3 66 -8 85 -10 19 -3 67 -7 105 -10 39 -3 90 -7 115
-10 25 -2 97 -7 160 -11 63 -3 142 -7 175 -9 302 -18 1359 -26 1643 -13 128 6
159 20 177 76 9 30 12 32 60 33 27 1 73 2 100 3 44 1 50 -2 53 -20 5 -37 47
-68 93 -68 34 0 47 6 70 32 16 18 29 41 29 52 0 15 7 20 28 21 15 1 38 2 52 4
110 12 114 11 128 -18 27 -56 63 -67 182 -53 455 50 679 188 805 498 37 90 79
285 90 413 4 44 9 98 10 120 26 299 26 1256 0 1450 -2 17 -7 62 -10 100 -30
352 -120 570 -300 724 -113 96 -339 175 -565 196 -58 6 -157 17 -180 20 -14 2
-72 7 -130 10 -58 4 -121 8 -140 10 -19 2 -102 7 -185 10 -82 4 -172 9 -200
11 -90 7 -1387 10 -1500 3z"/>
</g>
</svg>
